{
    "accessors" : [
        {
            "bufferView" : 0,
            "componentType" : 5126,
            "count" : 556,
            "max" : [
                1.7098604440689087,
                0.07996013760566711,
                1.7098606824874878
            ],
            "min" : [
                -1.7098615169525146,
                -2.7691898345947266,
                -1.709860920906067
            ],
            "type" : "VEC3"
        },
        {
            "bufferView" : 1,
            "componentType" : 5126,
            "count" : 556,
            "type" : "VEC3"
        },
        {
            "bufferView" : 2,
            "componentType" : 5126,
            "count" : 556,
            "type" : "VEC2"
        },
        {
            "bufferView" : 3,
            "componentType" : 5123,
            "count" : 876,
            "type" : "SCALAR"
        }
    ],
    "asset" : {
        "generator" : "Khronos Blender glTF 2.0 I/O",
        "version" : "2.0"
    },
    "bufferViews" : [
        {
            "buffer" : 0,
            "byteLength" : 6672,
            "byteOffset" : 0
        },
        {
            "buffer" : 0,
            "byteLength" : 6672,
            "byteOffset" : 6672
        },
        {
            "buffer" : 0,
            "byteLength" : 4448,
            "byteOffset" : 13344
        },
        {
            "buffer" : 0,
            "byteLength" : 1752,
            "byteOffset" : 17792
        }
    ],
    "buffers" : [
        {
            "byteLength" : 19544,
            "uri" : "table.bin"
        }
    ],
    "extensions" : {},
    "materials" : [
        {
            "name" : "Material.001",
            "pbrMetallicRoughness" : {
                "baseColorFactor" : [
                    0.800000011920929,
                    0.800000011920929,
                    0.800000011920929,
                    1
                ],
                "metallicFactor" : 0,
                "roughnessFactor" : 0.5
            }
        }
    ],
    "meshes" : [
        {
            "name" : "Plane.007",
            "primitives" : [
                {
                    "attributes" : {
                        "NORMAL" : 1,
                        "POSITION" : 0,
                        "TEXCOORD_0" : 2
                    },
                    "indices" : 3,
                    "material" : 0
                }
            ]
        }
    ],
    "nodes" : [
        {
            "name" : "Light",
            "rotation" : [
                0.16907575726509094,
                0.7558802962303162,
                -0.27217137813568115,
                0.570947527885437
            ],
            "scale" : [
                1,
                1,
                0.9999999403953552
            ],
            "translation" : [
                4.076245307922363,
                5.903861999511719,
                -1.0054539442062378
            ]
        },
        {
            "name" : "Camera",
            "rotation" : [
                0.483536034822464,
                0.33687159419059753,
                -0.20870360732078552,
                0.7804827094078064
            ],
            "translation" : [
                7.358891487121582,
                4.958309173583984,
                6.925790786743164
            ]
        },
        {
            "mesh" : 0,
            "name" : "Plane.005",
            "rotation" : [
                0,
                0.3826834559440613,
                0,
                0.9238795638084412
            ],
            "scale" : [
                6.815480709075928,
                6.815480709075928,
                6.815480709075928
            ],
            "translation" : [
                3.5567100048065186,
                6.036410808563232,
                -15.323554992675781
            ]
        }
    ],
    "scene" : 0,
    "scenes" : [
        {
            "name" : "Scene",
            "nodes" : [
                0,
                1,
                2
            ]
        }
    ]
}
